<svg id="Livello_1" data-name="Livello 1" xmlns="http://www.w3.org/2000/svg" viewBox="0 0 284.11 41.87"><title>logo</title><path d="M57.48,34.38A18.87,18.87,0,1,0,38.61,53.25,18.87,18.87,0,0,0,57.48,34.38m-6.92,0a12,12,0,1,1-12-12,11.95,11.95,0,0,1,12,12" transform="translate(-14.55 -15.12)" style="fill:#e7ecf6"/><path d="M167.69,48.25a60.68,60.68,0,0,0,6.25.25c5.41,0,9.66-1.58,12.12-4.29a15.36,15.36,0,0,0,3.66-10.62c0-4.25-1.25-7.41-3.5-9.74S180,20,174.89,20a45.25,45.25,0,0,0-5.57.37c-1.5.19-1.64.91-1.63,2.14V48.25Zm2-26.11a25.5,25.5,0,0,1,5.08-.46c9,0,13,4.87,12.91,12,0,8.12-4.46,13.16-13.45,13.16-1.06,0-2.06,0-2.93-.06s-1.6-.32-1.61-1.63v-23Zm35.64,10.54h-9.41c-1.4,0-1.79-.42-1.8-1.81v-9h10.33c1.57,0,1.54-1.67,1.54-1.67H194c-1.37,0-1.89.5-1.9,1.76V48.3H204.9a1.56,1.56,0,0,0,1.75-1.67h-11c-1.22,0-1.55-.32-1.55-1.43V34.34h9.44a1.58,1.58,0,0,0,1.77-1.66M211,48.3V23.11c1.22,2.4,14.93,23.55,14.93,23.55.61,1,.95,1.64,2,1.64h.88V21.85c0-1.87-1.92-1.62-1.92-1.62l0,25.05c-1.37-2.71-15.23-23.91-15.23-23.91-.55-.86-.81-1.14-1.8-1.14h-.82V46.59c0,1.88,1.91,1.71,1.91,1.71m29.94,0a1.79,1.79,0,0,0,2-1.85V21.89h7.13c2.07,0,2-1.67,2-1.67H233.42c-1.94,0-1.63,1.67-1.63,1.67h7.75c1.14,0,1.4.2,1.41,1.23V48.3Zm25.32-9.83,2.95,8.18a2.16,2.16,0,0,0,2.63,1.65L261.76,20.23h-.57c-1.24,0-1.6.66-2.19,2.31L249.67,48.3a2.29,2.29,0,0,0,2.57-1.5l2.93-8.33Zm-9.95-3.11,4.49-12.89,4.41,13c.26.75,0,1.37-.92,1.36h-7.06c-.94,0-1.26-.48-.92-1.43M274.5,48.3h12.74c2,0,1.75-1.67,1.75-1.67H278.17a1.47,1.47,0,0,1-1.67-1.58V20.23s-2-.32-2,1.64V48.3Z" transform="translate(-14.55 -15.12)" style="fill:#89a2c9"/><path d="M24.57,39.47c.53,0,.89,0,1.46,0,2.09,0,3.54-.29,4.41-.92a2.36,2.36,0,0,0,1.1-2c0-1.47-1.57-2.39-2.64-2.51,1.22-.33,2.19-1.07,2.17-2.17A2,2,0,0,0,30,30.19a6.35,6.35,0,0,0-3.5-.72c-.68,0-1.4,0-1.9.08s-1.12.43-1.12,1V39.4c.35,0,.47,0,1.1.07m.54-8.93a9.56,9.56,0,0,1,1.46-.09c1.67,0,2.63.45,2.63,1.6,0,1-.86,1.69-2.59,1.69h-.43c-.58,0-1.07-.25-1.07-.82Zm1,4.15h.38c1.81,0,3.13.59,3.13,1.92s-1.4,1.9-3.11,1.9H26c-.66,0-.85-.33-.85-.85V34.75a9.21,9.21,0,0,1,1-.06" transform="translate(-14.55 -15.12)" style="fill:#025a97"/><path d="M36.18,28c.53,0,.89,0,1.46,0,2.09,0,3.54-.29,4.41-.92a2.36,2.36,0,0,0,1.1-2c0-1.47-1.57-2.39-2.64-2.51,1.22-.33,2.19-1.07,2.17-2.17a2,2,0,0,0-1.08-1.74A6.35,6.35,0,0,0,38.1,18c-.68,0-1.4,0-1.9.08s-1.12.43-1.12,1V27.9l1.1.07M36.73,19A9.56,9.56,0,0,1,38.19,19c1.67,0,2.63.45,2.63,1.6,0,.95-.86,1.69-2.59,1.69H37.8c-.58,0-1.07-.25-1.07-.82Zm1,4.15h.38c1.81,0,3.13.59,3.13,1.92S39.83,27,38.12,27h-.53c-.66,0-.85-.33-.85-.84V23.26a6.79,6.79,0,0,1,1-.07" transform="translate(-14.55 -15.12)" style="fill:#89a2c9"/><path d="M41.93,39.46h.51c.72,0,1.11-.29,1.12-.88V29.52H42.22a1.41,1.41,0,0,0-1.47.81l-2.16,7.36L36.41,30.3A1.33,1.33,0,0,0,35,29.51H33.62v9.06c0,.62.5.88,1.08.88h.54V31l2.36,7.58c.26.59.58.84,1,.84s.71-.24,1-.83L41.91,31Z" transform="translate(-14.55 -15.12)" style="fill:#025a97"/><path d="M46.19,38.77a6.63,6.63,0,0,0,3.23.76c3.33,0,4.78-1.39,4.78-2.83s-1.29-2.29-3.62-2.88C48.65,33.34,48,32.87,48,32c0-.65.52-1.46,2.43-1.46a7.07,7.07,0,0,1,3.09.66.83.83,0,0,0-.38-1.12,4.77,4.77,0,0,0-2.68-.59c-2.6,0-4.63,1.13-4.63,2.67,0,1.38,1.22,2.16,3.65,2.74,1.93.46,2.52.92,2.52,1.83s-1,1.73-2.72,1.72a6.49,6.49,0,0,1-3.47-.88,1,1,0,0,0,.38,1.23" transform="translate(-14.55 -15.12)" style="fill:#025a97"/><path d="M72.38,48.67c1.52.08,2.58.12,4.23.12,6,0,10.23-.85,12.77-2.67a6.87,6.87,0,0,0,3.19-5.73c0-4.24-4.53-6.92-7.65-7.25,3.53-1,6.34-3.11,6.27-6.28a5.74,5.74,0,0,0-3.14-5.05c-2.26-1.44-5.34-2.08-10.13-2.08-2,0-4,.11-5.5.23-1.82.16-3.23,1.24-3.25,2.8V48.45c1,.07,1.39.12,3.21.22M74,22.84a26,26,0,0,1,4.24-.26c4.84,0,7.61,1.31,7.61,4.62,0,2.76-2.5,4.88-7.51,4.88H77.06c-1.66,0-3.09-.72-3.09-2.37Zm2.87,12h1.09c5.23,0,9,1.7,9,5.56,0,4.16-4,5.51-9,5.51-.65,0-1,0-1.53,0-1.92-.08-2.47-1-2.47-2.45L74,35a23.67,23.67,0,0,1,2.88-.19" transform="translate(-14.55 -15.12)" style="fill:#025a97"/><path d="M122.63,48.64h1.48c2.08,0,3.22-.83,3.24-2.54V19.89h-3.87c-2.3,0-3.55.78-4.26,2.36L113,43.56l-6.3-21.38c-.63-1.48-1.92-2.31-4-2.29H98.61v26.2c0,1.78,1.44,2.54,3.11,2.54h1.57l0-24.53L110.11,46c.75,1.7,1.67,2.44,2.94,2.44s2.06-.71,2.79-2.4l6.77-22Z" transform="translate(-14.55 -15.12)" style="fill:#025a97"/><path d="M135,46.64c2.18,1.6,6.81,2.18,9.35,2.18,9.63,0,13.84-4,13.84-8.19,0-4.46-3.72-6.62-10.49-8.33-5.57-1.38-7.46-2.75-7.46-5.34,0-1.88,1.51-4.22,7-4.22a20.48,20.48,0,0,1,8.95,1.92s1.05-1.78-1.09-3.25c-1.17-.8-3.43-1.68-7.75-1.72-7.52-.06-13.39,3.26-13.39,7.72,0,4,3.52,6.25,10.55,7.92,5.57,1.33,7.28,2.65,7.28,5.28,0,2.84-2.73,5-7.87,5a18.74,18.74,0,0,1-10-2.54A3,3,0,0,0,135,46.64" transform="translate(-14.55 -15.12)" style="fill:#025a97"/><path d="M35.33,50.63a6.6,6.6,0,0,0,3.23.76c3.33,0,4.78-1.39,4.78-2.83s-1.29-2.29-3.62-2.88c-1.93-.48-2.58-1-2.58-1.84,0-.65.52-1.46,2.43-1.46a7.07,7.07,0,0,1,3.09.66.83.83,0,0,0-.38-1.12,4.77,4.77,0,0,0-2.68-.59C37,41.31,35,42.46,35,44c0,1.38,1.22,2.16,3.65,2.74,1.93.46,2.52.92,2.52,1.83s-1,1.73-2.72,1.72A6.49,6.49,0,0,1,35,49.41a1,1,0,0,0,.38,1.22" transform="translate(-14.55 -15.12)" style="fill:#89a2c9"/><path d="M57.87,34.38A19.26,19.26,0,1,0,38.61,53.63,19.26,19.26,0,0,0,57.87,34.38m-.39,0A18.87,18.87,0,1,1,38.61,15.51,18.87,18.87,0,0,1,57.48,34.38" transform="translate(-14.55 -15.12)" style="fill:#025a97"/><path d="M297.67,55.24H61.57l-5.48-9.52a20.82,20.82,0,0,1-17.48,9.51h-.1A20.82,20.82,0,0,1,21,45.72L14.55,57H298.66Z" transform="translate(-14.55 -15.12)" style="fill:#025a97"/></svg>