<svg xmlns="http://www.w3.org/2000/svg" width="177.958" height="40"><defs><style>.cls-1{fill:#fff}</style></defs><g id="Group_171" data-name="Group 171" transform="translate(-80.061 -30.856)"><g id="Group_170" data-name="Group 170"><path id="Path_148" data-name="Path 148" class="cls-1" d="M85.107 42.369h10.572v-2.93H85.107V34.5h11.248v-3.49H80.061v20.158H96.5v-3.486H85.107z"/><path id="Path_149" data-name="Path 149" class="cls-1" d="M116.451 45.583c-1.232-2.687-7.536-13.383-8.237-14.573h-7.972v20.158h4.939v-9.755c0-1.536-.069-3.674-.212-6.534l-.012-.229h.582l.806 1.764c1.231 2.8 7.6 13.562 8.307 14.754h8.043V31.01h-5.011v9.79c0 2.182 0 2.463.142 4.772l.081 1.836h-.577z"/><path id="Path_150" data-name="Path 150" class="cls-1" d="M147.823 38.912c0-5.612-2.566-7.9-8.859-7.9h-11.85v20.156h11.743c4.443 0 6.78-.96 8.067-3.314.723-1.372.899-3.128.899-8.942zm-6.015 7.323c-.689.93-1.716 1.292-3.663 1.292h-5.984V34.712h6.127c1.913 0 2.944.339 3.556 1.169.632.806.826 1.984.826 5.038 0 3.261-.185 4.404-.862 5.316z"/><path id="Path_151" data-name="Path 151" class="cls-1" d="M170.607 48.511c1.009-1.477 1.241-2.868 1.241-7.438a25.317 25.317 0 0 0-.279-5.073 5.578 5.578 0 0 0-3.816-4.445c-1.376-.521-2.946-.7-6.223-.7a33.192 33.192 0 0 0-5.085.3 7.273 7.273 0 0 0-4.391 2.33c-1.122 1.386-1.413 3.123-1.413 8.448a22.074 22.074 0 0 0 .246 4.158 5.43 5.43 0 0 0 3.157 4.229c1.484.737 3.3 1 6.952 1a33.9 33.9 0 0 0 5.087-.305 6.936 6.936 0 0 0 4.524-2.504zm-4.392-2.6c-.617 1.406-1.566 1.769-4.614 1.769-3.176 0-4.166-.172-4.819-.837-.8-.829-.988-1.787-.988-5.123 0-4.879.144-5.665 1.188-6.47.77-.6 1.624-.756 4.156-.756 2.95 0 3.882.172 4.534.837.918.929 1.023 1.513 1.023 5.679.005 3.205-.072 3.938-.48 4.903z"/><path id="Path_152" data-name="Path 152" class="cls-1" d="M194.45 38.264c0-2.6-.277-3.872-1.1-5.03a6.336 6.336 0 0 0-4.957-2.193c-.779-.031-.779-.031-3.836-.031h-9.215v20.158h4.176v-5.959h5.609c.973-.021 1.7-.035 2.244-.046.97-.019 1.372-.026 1.5-.045a6.58 6.58 0 0 0 3.678-1.165c1.332-.953 1.901-2.653 1.901-5.689zm-9.286 3.274h-5.645V34.5h5.894a6.49 6.49 0 0 1 2.416.227c1.257.45 1.468 1.408 1.468 3.387.003 2.943-.58 3.424-4.133 3.424z"/><path id="Path_153" data-name="Path 153" class="cls-1" d="M202.458 31.01h-5.047v20.158h15.547V47.5h-10.5z"/><path id="Path_154" data-name="Path 154" class="cls-1" d="M225.669 47.682c-4.156 0-5.894-.446-5.894-3.213V31.01H215.6v13.459c0 3.81.71 5.177 3.169 6.095 1.412.567 3.125.758 6.794.758 3.97 0 5.386-.18 6.885-.875a4.46 4.46 0 0 0 2.723-3.531 26.722 26.722 0 0 0 .212-2.786V31.01h-4.176v13.244c-.001 2.952-1.633 3.428-5.538 3.428z"/><path id="Path_155" data-name="Path 155" class="cls-1" d="M258.019 45.025c0-2.611-.493-3.77-1.954-4.6-1.194-.671-2.536-.9-6.239-1.084a36.929 36.929 0 0 1-4.372-.312c-1.191-.276-1.673-.945-1.673-2.314 0-2.263 1.117-2.625 4.7-2.625 3.5 0 4.064.553 4.1 2.716h4.819c.018-.266.018-.519.018-.616a5.121 5.121 0 0 0-1.257-3.77c-1.164-1.187-3.072-1.569-7.852-1.569-4.364 0-6.248.292-7.754 1.2-1.239.784-1.817 2.256-1.817 4.63 0 2.864.692 4.279 2.467 5.049 1.168.507 2.254.663 6.119.878 4.37.251 4.37.251 4.99.688.5.3.733.892.733 1.907a2.494 2.494 0 0 1-.843 2.248c-.667.443-1.244.532-3.432.532-3.268 0-3.806-.061-4.433-.5a2.684 2.684 0 0 1-.84-2.339V45h-4.8c.014 2.328.244 3.346.952 4.282 1.126 1.568 3.2 2.044 8.869 2.044 4.776 0 6.574-.335 8.014-1.5 1.066-.868 1.485-2.214 1.485-4.801z"/></g><path id="Path_156" data-name="Path 156" class="cls-1" d="M80.461 63.457s10.881-6.093 47.005-6.093c34.382 0 63.978 3.917 92.7 3.917s36.559-.871 36.559-.871S241.93 70.856 197.1 70.856s-47.22-7.399-116.639-7.399z"/></g></svg>