<?xml version="1.0" encoding="utf-8"?>
<!-- Generator: Adobe Illustrator 26.5.0, SVG Export Plug-In . SVG Version: 6.00 Build 0)  -->
<svg version="1.1" id="Ebene_1" xmlns="http://www.w3.org/2000/svg" xmlns:xlink="http://www.w3.org/1999/xlink" x="0px" y="0px"
	 viewBox="0 0 283.46 130.23" style="enable-background:new 0 0 283.46 130.23;" xml:space="preserve">
<style type="text/css">
	.st0{clip-path:url(#SVGID_00000156579387231603603450000006157589626015503256_);fill:#fff;}
</style>
<g>
	<defs>
		<rect id="SVGID_1_" x="16.94" y="14.46" width="249.58" height="106.72"/>
	</defs>
	<clipPath id="SVGID_00000167385394434643205720000017652704927858293164_">
		<use xlink:href="#SVGID_1_"  style="overflow:visible;"/>
	</clipPath>
	<path style="clip-path:url(#SVGID_00000167385394434643205720000017652704927858293164_);fill:#fff;" d="M16.94,120.81h6.99
		c5.41,0,9.44-3.11,9.44-8.79c0-5.73-4.03-8.82-9.44-8.84h-6.99V120.81z M23.88,104.76c4.44,0,7.62,2.52,7.62,7.26
		c0,4.7-3.18,7.21-7.62,7.21h-5.11v-14.47H23.88z M49.67,118.01c-1.18,0.88-2.85,1.66-4.92,1.66c-3.82,0-5.57-2.18-5.76-5.01h11.43
		c0.13-0.49,0.24-1.37,0.24-2.12c0-3.09-1.91-5.66-6.19-5.66c-4.52,0-7.34,3.24-7.34,7.18c0,3.89,2.25,7.1,7.56,7.1
		c2.37,0,4.3-0.72,5.76-1.84L49.67,118.01z M48.84,113.24h-9.8c0.16-2.62,2.1-4.85,5.41-4.85c3.12,0,4.47,1.84,4.47,3.89
		C48.92,112.62,48.86,112.95,48.84,113.24 M55.19,107.25v13.56h1.83v-8.71c0.54-1.87,2.26-3.42,4.87-3.42
		c2.93,0,4.28,1.94,4.28,4.56v7.57h1.83v-7.8c0-3.4-1.8-5.99-5.62-5.99c-2.45,0-4.33,1.06-5.36,2.77v-2.54H55.19z M74.05,103.8
		l-0.19,3.45h-2.82v1.45h2.8v8.25c0,2.67,1.48,4.12,3.95,4.12c1.78,0,3.34-0.52,4.49-1.24l-0.65-1.4c-0.84,0.6-2.23,1.06-3.34,1.06
		c-1.72,0-2.64-0.96-2.64-2.85v-7.94h5.86v-1.45h-5.84v-3.45H74.05z M86.58,109.5c1.26-0.6,2.82-0.93,4.41-0.93
		c2.45,0,3.69,1.17,3.69,3.5v0.41c-0.84-0.21-1.86-0.34-2.96-0.34c-3.93,0-6.86,1.48-6.86,4.79c0,2.52,1.91,4.12,4.98,4.12
		c2.32,0,3.85-0.96,4.84-1.89v1.63h1.82V112c0-2.99-1.72-4.98-5.38-4.98c-1.67,0-3.61,0.36-4.9,0.93L86.58,109.5z M86.68,116.79
		c0-2.34,2.34-3.29,5.35-3.29c1,0,2.02,0.15,2.64,0.31v4.07c-0.86,0.78-2.26,1.74-4.36,1.74C88.11,119.62,86.68,118.61,86.68,116.79
		z M101.7,102.4v15.61c0,2.17,1.18,3.06,2.9,3.06c1.05,0,1.99-0.31,2.58-0.67l-0.24-1.42c-0.54,0.34-1.05,0.57-1.75,0.57
		c-0.99,0-1.67-0.57-1.67-1.89V102.4H101.7z M130.77,120.81v-1.58h-12.13v-6.82h10.17v-1.58h-10.17v-6.07h12.13v-1.58H116.9v17.63
		H130.77z M147.49,107.25h-2.02l-4.71,5.73l-4.71-5.73h-2.02v0.16l5.43,6.66l-5.43,6.59v0.15h2.07l4.65-5.65l4.65,5.65h2.07v-0.15
		l-5.46-6.59l5.46-6.66V107.25z M149.77,114.02c0,4.07,3.06,7.16,7.47,7.16c2.13,0,3.93-0.7,5.25-1.84l-0.94-1.32
		c-1.02,0.91-2.42,1.53-4.22,1.53c-3.39,0-5.68-2.36-5.68-5.53c0-3.16,2.29-5.5,5.68-5.5c1.8,0,3.2,0.62,4.22,1.53l0.94-1.32
		c-1.32-1.14-3.12-1.84-5.25-1.84C152.83,106.89,149.77,109.94,149.77,114.02 M177.82,118.01c-1.18,0.88-2.85,1.66-4.92,1.66
		c-3.82,0-5.57-2.18-5.76-5.01h11.43c0.14-0.49,0.24-1.37,0.24-2.12c0-3.09-1.91-5.66-6.19-5.66c-4.52,0-7.34,3.24-7.34,7.18
		c0,3.89,2.26,7.1,7.56,7.1c2.37,0,4.31-0.72,5.76-1.84L177.82,118.01z M176.99,113.24h-9.79c0.16-2.62,2.1-4.85,5.41-4.85
		c3.12,0,4.47,1.84,4.47,3.89C177.07,112.62,177.02,112.95,176.99,113.24 M183.38,102.4v15.61c0,2.17,1.18,3.06,2.9,3.06
		c1.05,0,1.99-0.31,2.58-0.67l-0.24-1.42c-0.54,0.34-1.05,0.57-1.75,0.57c-0.99,0-1.67-0.57-1.67-1.89V102.4H183.38z M192.09,102.4
		v15.61c0,2.17,1.18,3.06,2.9,3.06c1.05,0,1.99-0.31,2.58-0.67l-0.24-1.42c-0.54,0.34-1.05,0.57-1.75,0.57c-1,0-1.67-0.57-1.67-1.89
		V102.4H192.09z M212.19,118.01c-1.18,0.88-2.85,1.66-4.92,1.66c-3.82,0-5.57-2.18-5.76-5.01h11.43c0.13-0.49,0.24-1.37,0.24-2.12
		c0-3.09-1.9-5.66-6.18-5.66c-4.52,0-7.34,3.24-7.34,7.18c0,3.89,2.25,7.1,7.56,7.1c2.37,0,4.31-0.72,5.76-1.84L212.19,118.01z
		 M211.36,113.24h-9.79c0.16-2.62,2.1-4.85,5.41-4.85c3.12,0,4.47,1.84,4.47,3.89C211.43,112.62,211.38,112.95,211.36,113.24
		 M217.7,107.25v13.56h1.83v-8.71c0.54-1.87,2.26-3.42,4.87-3.42c2.93,0,4.28,1.94,4.28,4.56v7.57h1.82v-7.8
		c0-3.4-1.8-5.99-5.62-5.99c-2.45,0-4.33,1.06-5.36,2.77v-2.54H217.7z M234.73,114.02c0,4.07,3.06,7.16,7.48,7.16
		c2.13,0,3.93-0.7,5.24-1.84l-0.94-1.32c-1.02,0.91-2.42,1.53-4.22,1.53c-3.39,0-5.67-2.36-5.67-5.53c0-3.16,2.29-5.5,5.67-5.5
		c1.8,0,3.2,0.62,4.22,1.53l0.94-1.32c-1.32-1.14-3.12-1.84-5.24-1.84C237.79,106.89,234.73,109.94,234.73,114.02 M262.78,118.01
		c-1.18,0.88-2.85,1.66-4.92,1.66c-3.82,0-5.57-2.18-5.76-5.01h11.43c0.13-0.49,0.24-1.37,0.24-2.12c0-3.09-1.91-5.66-6.19-5.66
		c-4.52,0-7.34,3.24-7.34,7.18c0,3.89,2.26,7.1,7.56,7.1c2.37,0,4.3-0.72,5.76-1.84L262.78,118.01z M261.95,113.24h-9.8
		c0.16-2.62,2.1-4.85,5.41-4.85c3.12,0,4.47,1.84,4.47,3.89C262.03,112.62,261.98,112.95,261.95,113.24"/>
	<path style="clip-path:url(#SVGID_00000167385394434643205720000017652704927858293164_);fill:#fff;" d="M206.13,14.46h-12.11
		c-2.16,0-3.21,1.9-3.21,1.9l-27.6,47.87L139.54,23.3c0,0-1.14-1.96-3.21-1.96h-12.12c0,0-2.13,0.01-1.02,1.94
		c0,0,33.34,57.77,33.77,58.51c2.31,4.01,3.22,4.01,6.33,4.01c3.34,0,3.81,0,6.07-3.95c0.34-0.57,37.86-65.52,37.86-65.52
		C208.3,14.46,206.13,14.46,206.13,14.46"/>
	<path style="clip-path:url(#SVGID_00000167385394434643205720000017652704927858293164_);fill:#fff;" d="M43.8,42.54H31.17
		V23.38c0,0,0-2.16-2.16-2.16h-9.88c0,0-2.16,0-2.16,2.16v52.77c0,0,0,2.16,2.16,2.16H29c0,0,2.16,0,2.16-2.16V56.81h12.41
		l15.69,27.12c0,0,1.08,1.87,3.24,1.87h12.06c0,0,2.16,0,1.08-1.87c0,0-18.08-31.31-18.53-32.06c-0.45-0.75-1.38-1.7-0.3-3.57
		l18.42-31.96c0,0,1.08-1.87-1.08-1.87h-12c0,0-2.16,0-3.24,1.87L43.8,42.54z"/>
	<path style="clip-path:url(#SVGID_00000167385394434643205720000017652704927858293164_);fill:#fff;" d="M141.58,83.93
		c0,0-37.61-65.26-37.95-65.82c-2.12-3.55-2.94-3.65-6.39-3.65c-3.19,0-4.3,0.07-6.67,4.12c-0.43,0.74-16.86,29.29-17.18,29.81
		c-0.63,1.01-0.59,1.86,0.09,3.04c0.07,0.11,10.15,17.65,10.44,18.12c0.66,1.1,1.55,1.48,2.89,1.5c0.36,0,18.3,0,18.3,0
		c2.16,0,1.08-1.88,1.08-1.88l-6.6-10.49c-1.08-1.87-3.24-1.87-3.24-1.87l-11.47,0l12.34-21.38l28,48.49c0,0,1.08,1.87,3.24,1.87
		h12.04C140.5,85.8,142.66,85.8,141.58,83.93"/>
	<path style="clip-path:url(#SVGID_00000167385394434643205720000017652704927858293164_);fill:#fff;" d="M232.35,74.13
		c-11.37,0-20.59-9.24-20.59-20.63c0-11.39,9.22-20.63,20.59-20.63s20.59,9.24,20.59,20.63C252.94,64.9,243.72,74.13,232.35,74.13
		 M232.35,19.33c-18.87,0-34.17,15.3-34.17,34.17c0,18.87,15.3,34.17,34.17,34.17s34.17-15.3,34.17-34.17
		C266.52,34.63,251.22,19.33,232.35,19.33"/>
</g>
</svg>
