<?xml version="1.0" encoding="UTF-8"?><svg id="a" xmlns="http://www.w3.org/2000/svg" xmlns:xlink="http://www.w3.org/1999/xlink" viewBox="0 0 367.09 119.06"><defs><style>.f{fill:url(#e);}.g{fill:url(#d);}.h{fill:url(#c);}.i{fill:url(#b);}.j{fill:#293070;}</style><linearGradient id="b" x1="19.21" y1="86.06" x2="19.21" y2="33.56" gradientTransform="matrix(1, 0, 0, 1, 0, 0)" gradientUnits="userSpaceOnUse"><stop offset="0" stop-color="#5da9de"/><stop offset=".15" stop-color="#5aa3d9"/><stop offset=".35" stop-color="#5494cb"/><stop offset=".56" stop-color="#497ab3"/><stop offset=".79" stop-color="#395793"/><stop offset="1" stop-color="#293070"/></linearGradient><linearGradient id="c" x1="32.34" y1="20.43" x2="84.84" y2="20.43" gradientTransform="matrix(1, 0, 0, 1, 0, 0)" gradientUnits="userSpaceOnUse"><stop offset="0" stop-color="#293070"/><stop offset=".21" stop-color="#395793"/><stop offset=".44" stop-color="#497ab3"/><stop offset=".65" stop-color="#5494cb"/><stop offset=".85" stop-color="#5aa3d9"/><stop offset="1" stop-color="#5da9de"/></linearGradient><linearGradient id="d" x1="97.96" y1="86.06" x2="97.96" y2="33.56" xlink:href="#c"/><linearGradient id="e" x1="32.34" y1="99.18" x2="84.84" y2="99.18" gradientTransform="matrix(1, 0, 0, 1, 0, 0)" gradientUnits="userSpaceOnUse"><stop offset="0" stop-color="#5da9de"/><stop offset=".15" stop-color="#5aa3d9"/><stop offset=".35" stop-color="#5494cb"/><stop offset=".56" stop-color="#497ab3"/><stop offset=".79" stop-color="#395793"/><stop offset="1" stop-color="#293070"/></linearGradient></defs><circle class="j" cx="58.59" cy="59.81" r="16.41"/><g><path class="i" d="M6.09,59.81v13.12c0,7.25,5.88,13.12,13.12,13.12s13.13-5.88,13.13-13.12V33.56c-14.5,0-26.25,11.75-26.25,26.25Z"/><path class="h" d="M71.71,7.31h-13.12c-14.5,0-26.25,11.75-26.25,26.25h39.37c7.25,0,13.13-5.88,13.13-13.12s-5.88-13.13-13.13-13.13Z"/></g><g><path class="g" d="M97.96,33.56c-7.25,0-13.12,5.88-13.12,13.12v39.37c14.5,0,26.25-11.75,26.25-26.25v-13.13c0-7.25-5.88-13.12-13.12-13.12Z"/><path class="f" d="M32.34,99.18h0c0,7.25,5.88,13.13,13.12,13.13h13.12c14.5,0,26.25-11.75,26.25-26.25H45.46c-7.25,0-13.12,5.88-13.12,13.12Z"/></g><g><path class="j" d="M137.84,86.28V33.47h24.06c3.27,0,6.19,.62,8.75,1.85,2.56,1.23,4.55,2.96,5.96,5.17,1.41,2.21,2.11,4.73,2.11,7.54,0,3.12-.97,5.91-2.9,8.37-1.94,2.46-4.51,4.2-7.73,5.21,2.82,.75,4.73,2.49,5.73,5.2l7.32,19.46h-6.79l-6.79-18.33c-.4-1.11-1.04-1.96-1.92-2.56-.88-.6-1.95-.91-3.21-.91h-18.25v21.8h-6.34Zm24.36-27.46c3.17,0,5.64-.95,7.43-2.87,1.78-1.91,2.68-4.35,2.68-7.32s-.94-5.27-2.83-6.9c-1.89-1.63-4.31-2.45-7.28-2.45h-18.03v19.54h18.03Z"/><path class="j" d="M192.21,84.47c-2.99-1.76-5.31-4.21-6.94-7.35-1.63-3.14-2.45-6.7-2.45-10.67,0-4.37,.85-8.16,2.56-11.35,1.71-3.19,4.01-5.61,6.9-7.24,2.89-1.63,6.05-2.45,9.47-2.45,5.53,0,9.94,1.79,13.24,5.36,3.29,3.57,4.99,8.52,5.09,14.86v1.74h-31c.2,4.33,1.5,7.8,3.88,10.41,2.39,2.62,5.57,3.92,9.54,3.92,2.82,0,5.2-.69,7.17-2.07,1.96-1.38,3.34-3.36,4.15-5.92h6.11c-.91,4.12-2.9,7.39-6,9.81-3.09,2.41-6.9,3.62-11.43,3.62-3.87,0-7.31-.88-10.3-2.64Zm21.31-22.33c-.55-3.52-1.86-6.29-3.92-8.3-2.06-2.01-4.68-3.02-7.84-3.02s-5.85,.99-8.03,2.98c-2.19,1.99-3.61,4.77-4.26,8.34h24.06Z"/><path class="j" d="M227.04,86.28V46.3h4.98l.6,6.11c1.36-2.16,3.28-3.87,5.77-5.13,2.49-1.26,5.19-1.89,8.11-1.89,4.32,0,7.8,1.31,10.41,3.92,2.61,2.62,3.92,6.11,3.92,10.49v26.48h-6.26v-26.25c0-2.82-.86-5.04-2.56-6.68-1.71-1.63-4.07-2.45-7.09-2.45-3.47,0-6.26,1.06-8.37,3.17-2.11,2.11-3.19,4.75-3.24,7.92v24.29h-6.26Z"/><path class="j" d="M276.74,84.47c-2.99-1.76-5.31-4.21-6.94-7.35-1.63-3.14-2.45-6.7-2.45-10.67,0-4.37,.85-8.16,2.56-11.35,1.71-3.19,4.01-5.61,6.9-7.24,2.89-1.63,6.05-2.45,9.47-2.45,5.53,0,9.94,1.79,13.24,5.36,3.29,3.57,4.99,8.52,5.09,14.86v1.74h-31c.2,4.33,1.5,7.8,3.88,10.41,2.39,2.62,5.57,3.92,9.54,3.92,2.82,0,5.2-.69,7.17-2.07,1.96-1.38,3.34-3.36,4.15-5.92h6.11c-.91,4.12-2.9,7.39-6,9.81-3.09,2.41-6.9,3.62-11.43,3.62-3.87,0-7.31-.88-10.3-2.64Zm21.31-22.33c-.55-3.52-1.86-6.29-3.92-8.3-2.06-2.01-4.68-3.02-7.84-3.02s-5.85,.99-8.03,2.98c-2.19,1.99-3.61,4.77-4.26,8.34h24.06Z"/><path class="j" d="M325.41,86.28h-6.94l-11.84-39.98h6.41l9.2,32.21,8.9-32.21h5.43l8.9,32.06,9.13-32.06h6.41l-11.84,39.98h-6.86l-8.45-30.47-8.45,30.47Z"/></g></svg>