<svg width="208" height="27" viewBox="0 0 208 27" fill="none" xmlns="http://www.w3.org/2000/svg">
<path d="M27.5999 24.37C23.2941 25.664 18.8259 26.3374 14.33 26.37C9.76275 26.3264 5.22337 25.6534 0.839966 24.37V19.45C5.25263 20.8777 9.85272 21.6427 14.49 21.72C17.6598 21.685 20.8146 21.2789 23.89 20.51V15.94H0.839966V2.81C5.14782 1.52523 9.61479 0.851985 14.11 0.809998C18.6764 0.862659 23.2146 1.53548 27.5999 2.81V7.70001C23.1765 6.33035 18.5801 5.59962 13.95 5.53C10.7836 5.56278 7.63081 5.94849 4.54996 6.67999V11.08H27.5999V24.37Z" fill="white"/>
<path d="M61.2 15.81V26.21H57.4901V15.81H38.1501V26.21H34.42V2.81C38.7343 1.52338 43.2082 0.850113 47.7101 0.809998C52.2766 0.861917 56.8149 1.53475 61.2 2.81V15.81ZM38.2 6.60999V10.92H57.54V6.66C54.2852 5.89093 50.9544 5.48841 47.61 5.45999C44.4231 5.4982 41.2503 5.89062 38.1501 6.63L38.2 6.60999Z" fill="white"/>
<path d="M68.05 10.94V1.66998C72.8129 1.03599 77.6155 0.748579 82.42 0.80999C87.0398 0.748026 91.6574 1.04894 96.23 1.70998V6.63998C91.2737 5.80448 86.2563 5.38305 81.23 5.38C78.0851 5.35784 74.943 5.57176 71.83 6.01998V10.93H90.2V15.81H71.76V20.81C74.8968 21.2545 78.062 21.4685 81.23 21.45C86.1968 21.457 91.154 21.0119 96.04 20.12V25.06C91.5509 25.907 86.9878 26.299 82.42 26.23C77.6176 26.3064 72.8189 25.9213 68.0901 25.08V10.94H68.05Z" fill="white"/>
<path d="M129.8 24.37C125.494 25.664 121.026 26.3374 116.53 26.37C111.963 26.3278 107.423 25.6547 103.04 24.37V19.45C107.449 20.8783 112.046 21.6433 116.68 21.72C119.853 21.6856 123.011 21.2795 126.09 20.51V15.94H103.04V2.81C107.345 1.52616 111.808 0.852921 116.3 0.809998C120.867 0.842366 125.409 1.495 129.8 2.75V7.63998C125.377 6.27032 120.78 5.53962 116.15 5.47C112.984 5.50279 109.831 5.8885 106.75 6.62V11.02H129.8V24.37Z" fill="white"/>
<path d="M163.42 15.81V26.26H159.71V15.81H140.42V26.26H136.63V0.809998H140.42V10.93H159.68V0.809998H163.42V15.81Z" fill="white"/>
<path d="M170.24 0.809998H173.96V26.22H170.24V0.809998Z" fill="white"/>
<path d="M180.8 2.81C185.107 1.52041 189.574 0.847058 194.07 0.809998C198.637 0.857427 203.176 1.53035 207.56 2.81V26.38H203.85V6.67999C200.595 5.91092 197.264 5.50843 193.92 5.48001C190.75 5.51214 187.594 5.89785 184.51 6.63V26.33H180.8V2.81Z" fill="white"/>
</svg>
