<?xml version="1.0" encoding="UTF-8" standalone="no"?>
<!DOCTYPE svg PUBLIC "-//W3C//DTD SVG 1.1//EN" "http://www.w3.org/Graphics/SVG/1.1/DTD/svg11.dtd">
<svg width="100%" height="100%" viewBox="0 0 3544 1654" version="1.1" xmlns="http://www.w3.org/2000/svg" xmlns:xlink="http://www.w3.org/1999/xlink" xml:space="preserve" xmlns:serif="http://www.serif.com/" style="fill-rule:evenodd;clip-rule:evenodd;stroke-miterlimit:10;">
    <g id="LKD_Logo-Bild" serif:id="LKD_Logo Bild" transform="matrix(4.16667,0,0,4.16667,0,0)">
        <g transform="matrix(0,-1,-1,0,824.186,121.315)">
            <path d="M-9.733,-9.733C-15.108,-9.733 -19.467,-5.374 -19.467,0C-19.467,5.377 -15.108,9.733 -9.733,9.733C-4.358,9.733 0.001,5.377 0.001,0C0.001,-5.374 -4.358,-9.733 -9.733,-9.733" style="fill:white;fill-rule:nonzero;"/>
        </g>
        <g transform="matrix(1,0,0,1,19.4829,63.1128)">
            <path d="M0,14.665L38.534,-15.317C259.136,-18.894 259.133,-18.894 406.627,2.153C548.073,21.868 606.115,33.559 606.115,33.559C606.115,33.559 486.971,16.155 433.627,12.322C209.71,-2.737 202.643,1.523 124.668,4.397C53.97,7.004 0,14.665 0,14.665" style="fill:rgb(151,154,156);fill-rule:nonzero;"/>
        </g>
        <g transform="matrix(1,0,0,1,15.3867,59.6264)">
            <path d="M0,16.25L38.794,-16.974C38.794,-16.974 260.887,-20.935 409.377,2.386C551.776,24.231 610.211,37.185 610.211,37.185C610.211,37.185 490.261,17.901 436.557,13.654C211.128,-3.034 204.013,1.687 125.511,4.872C54.335,7.762 0,16.25 0,16.25" style="fill:rgb(238,49,35);fill-rule:nonzero;"/>
        </g>
        <g transform="matrix(1,0,0,1,448.241,362.395)">
            <path d="M0,-131.7C-53.166,-130.55 -100.843,-125.89 -141.802,-117.572C-103.678,-123.635 -56.339,-126.856 -7.739,-126.856C107.047,-129.277 197.922,-99.113 197.922,-62.031C197.922,-37.676 143.265,-11.545 68.722,0C163.904,-8.139 264.536,-30.01 265.964,-66.247C266.166,-94.635 143.575,-131.223 0,-131.7" style="fill:rgb(151,154,156);fill-rule:nonzero;"/>
        </g>
        <g transform="matrix(-5.8e-06,131.716,131.716,5.8e-06,513.782,231.171)">
            <path d="M0.003,-0.518C0.011,-0.922 0.045,-1.284 0.107,-1.595C0.062,-1.305 0.038,-0.946 0.038,-0.577C0.02,0.295 0.243,0.985 0.516,0.985C0.696,0.985 0.915,0.566 1,0C0.94,0.723 0.727,1.499 0.485,1.509C0.229,1.553 0,0.695 -0,-0.331C-0,-0.393 0.001,-0.455 0.003,-0.518Z" style="fill:url(#_Linear1);fill-rule:nonzero;"/>
        </g>
        <g transform="matrix(1,0,0,1,445.574,358.944)">
            <path d="M0,-127.44C-53.178,-126.324 -100.854,-121.797 -141.814,-113.72C-103.69,-119.606 -56.351,-122.736 -7.738,-122.736C107.048,-125.086 197.921,-95.794 197.921,-59.781C197.921,-36.128 142.766,-7.271 68.226,3.943C163.407,-3.964 265.66,-32.073 266.996,-63.877C273.062,-99.677 145.786,-131.383 0,-127.44Z" style="fill:none;fill-rule:nonzero;stroke:rgb(238,49,35);stroke-width:0.36px;"/>
        </g>
        <g transform="matrix(1,0,0,1,190.231,196.179)">
            <path d="M0,-75.96L0,-19.064L28.878,-19.064L28.878,0L-32.977,0L-32.977,-75.96L0,-75.96Z" style="fill:rgb(35,31,32);fill-rule:nonzero;"/>
        </g>
        <g transform="matrix(1,0,0,1,296.791,197.424)">
            <path d="M0,-77.205L0,-42.062C0,-37.582 -0.358,-33.484 -1.074,-29.767C-1.789,-26.05 -2.871,-22.69 -4.317,-19.687C-5.765,-16.684 -7.585,-13.996 -9.781,-11.623C-11.976,-9.25 -14.57,-7.168 -17.562,-5.376C-23.513,-1.792 -30.018,0 -37.074,0C-43.677,0 -49.968,-1.659 -55.953,-4.978C-61.904,-8.296 -66.425,-12.876 -69.514,-18.717C-72.539,-24.524 -74.05,-32.769 -74.05,-43.456L-74.05,-77.205L-41.074,-77.205L-41.074,-41.415C-41.074,-38.362 -40.798,-36.238 -40.245,-35.044C-39.66,-33.914 -38.635,-33.351 -37.171,-33.351C-36.294,-33.351 -35.586,-33.55 -35.05,-33.949C-34.513,-34.346 -34.091,-34.977 -33.782,-35.84C-33.473,-36.702 -33.262,-37.814 -33.147,-39.175C-33.034,-40.535 -32.977,-42.177 -32.977,-44.103L-32.977,-77.205L0,-77.205Z" style="fill:rgb(35,31,32);fill-rule:nonzero;"/>
        </g>
        <g transform="matrix(1,0,0,1,337.532,196.179)">
            <path d="M0,-75.96L0,-50.574C2.666,-50.773 5.065,-51.453 7.194,-52.614C9.325,-53.775 11.13,-55.427 12.609,-57.567C14.089,-59.708 15.227,-62.312 16.025,-65.382C16.821,-68.452 17.22,-71.978 17.22,-75.96L50.782,-75.96C50.782,-66.702 49.594,-59.085 47.22,-53.112C44.878,-47.105 41.171,-42.11 36.098,-38.129C41.041,-34.247 44.936,-29.194 47.781,-22.972C50.627,-16.749 52.325,-9.092 52.878,0L17.317,0C16.503,-18.085 10.731,-27.327 0,-27.725L0,0L-32.928,0L-32.928,-75.96L0,-75.96Z" style="fill:rgb(35,31,32);fill-rule:nonzero;"/>
        </g>
        <g transform="matrix(1,0,0,1,440.187,150.981)">
            <path d="M0,14.435L12.195,14.435L6.197,-4.131L6.002,-4.131L0,14.435ZM29.563,-30.763L55.416,45.198L22.489,45.198L18.197,32.355L-5.997,32.355L-10.294,45.198L-43.268,45.198L-17.415,-30.763L29.563,-30.763Z" style="fill:rgb(35,31,32);fill-rule:nonzero;"/>
        </g>
        <g transform="matrix(1,0,0,1,536.093,149.288)">
            <path d="M0,17.821L0.878,17.821C4.845,17.821 7.707,17.116 9.465,15.705C11.221,14.296 12.098,11.981 12.098,8.761C12.098,5.941 11.26,3.776 9.586,2.265C7.91,0.756 5.35,-0 1.902,-0L0,-0L0,17.821ZM4.294,-29.07C12.228,-29.07 19.302,-27.476 25.514,-24.291C31.725,-21.105 36.537,-16.475 39.953,-10.403C43.367,-4.363 45.074,2.125 45.074,9.06C45.074,16.128 43.318,22.666 39.807,28.672C36.36,34.613 31.465,39.143 25.121,42.261C18.812,45.348 11.627,46.891 3.563,46.891L-32.927,46.891L-32.927,-29.07L4.294,-29.07Z" style="fill:white;fill-rule:nonzero;stroke:rgb(35,31,32);stroke-width:3.64px;"/>
        </g>
        <g transform="matrix(1,0,0,1,651.267,196.179)">
            <path d="M0,-75.96L0,-56.896L-28.876,-56.896L-28.876,-47.487L-8.779,-47.487L-8.779,-28.422L-28.876,-28.422L-28.876,-19.064L0,-19.064L0,0L-61.806,0L-61.806,-75.96L0,-75.96Z" style="fill:white;fill-rule:nonzero;stroke:rgb(35,31,32);stroke-width:3.64px;"/>
        </g>
        <g transform="matrix(1,0,0,1,681.983,196.777)">
            <path d="M0,-76.558L17.172,-51.172L17.366,-51.172L17.366,-76.558L50.344,-76.558L50.344,0L25.365,0L9.562,-23.644L9.366,-23.644L9.366,-0.598L-23.562,-0.598L-23.562,-76.558L0,-76.558Z" style="fill:white;fill-rule:nonzero;stroke:rgb(35,31,32);stroke-width:3.64px;"/>
        </g>
        <g transform="matrix(1,0,0,1,806.451,196.179)">
            <path d="M0,-75.96L0,-42.311L-16.588,-42.311L-16.588,0L-49.563,0L-49.563,-42.311L-66.149,-42.311L-66.149,-75.96L0,-75.96Z" style="fill:white;fill-rule:nonzero;stroke:rgb(35,31,32);stroke-width:3.64px;"/>
        </g>
        <g transform="matrix(1,0,0,1,823.977,131.796)">
            <path d="M0,-1.536C0.708,-1.536 1.246,-1.673 1.619,-1.949C1.989,-2.223 2.175,-2.616 2.175,-3.129C2.175,-3.65 1.98,-4.044 1.59,-4.309C1.2,-4.574 0.628,-4.708 -0.124,-4.708L-2.271,-4.708L-2.271,-1.536L0,-1.536ZM1.144,-6.514C2.146,-6.514 2.976,-6.22 3.626,-5.633C4.275,-5.053 4.602,-4.271 4.602,-3.285C4.602,-2.394 4.332,-1.661 3.792,-1.088C3.252,-0.514 2.506,-0.165 1.549,-0.043L1.549,0.014C2.134,0.185 2.626,0.579 3.026,1.194C3.221,1.499 3.506,1.97 3.883,2.61C4.261,3.25 4.727,4.063 5.283,5.049L2.427,5.049L1.534,3.271C1.041,2.304 0.634,1.635 0.308,1.266C-0.019,0.886 -0.325,0.631 -0.613,0.498C-0.919,0.365 -1.259,0.299 -1.63,0.299L-2.271,0.299L-2.271,5.049L-4.585,5.049L-4.585,-6.514L1.144,-6.514ZM-8.334,-0.768C-8.334,0.778 -7.957,2.224 -7.204,3.57C-6.451,4.916 -5.406,5.987 -4.067,6.784C-2.722,7.571 -1.286,7.964 0.239,7.964C1.771,7.964 3.196,7.576 4.518,6.798C5.837,6.022 6.882,4.955 7.653,3.598C8.414,2.252 8.794,0.796 8.794,-0.768C8.794,-2.313 8.411,-3.774 7.64,-5.148C6.867,-6.514 5.822,-7.58 4.504,-8.348C3.185,-9.125 1.753,-9.515 0.21,-9.515C-1.296,-9.515 -2.706,-9.125 -4.026,-8.348C-5.366,-7.571 -6.417,-6.504 -7.177,-5.148C-7.948,-3.792 -8.334,-2.332 -8.334,-0.768M0.239,-11.662C2.125,-11.662 3.897,-11.179 5.562,-10.211C7.224,-9.244 8.531,-7.911 9.479,-6.215C10.436,-4.527 10.914,-2.711 10.914,-0.768C10.914,1.176 10.44,2.992 9.492,4.679C8.554,6.357 7.248,7.69 5.575,8.675C3.912,9.642 2.134,10.126 0.239,10.126C-1.666,10.126 -3.448,9.642 -5.1,8.675C-6.744,7.718 -8.052,6.386 -9.017,4.679C-9.964,2.992 -10.438,1.176 -10.438,-0.768C-10.438,-2.692 -9.964,-4.503 -9.017,-6.201C-8.069,-7.898 -6.764,-9.23 -5.1,-10.198C-3.448,-11.173 -1.666,-11.662 0.239,-11.662" style="fill:rgb(35,31,32);fill-rule:nonzero;"/>
        </g>
    </g>
    <defs>
        <linearGradient id="_Linear1" x1="0" y1="0" x2="1" y2="0" gradientUnits="userSpaceOnUse" gradientTransform="matrix(1,6.61744e-24,6.61744e-24,-1,0,-0.0418546)"><stop offset="0" style="stop-color:rgb(236,47,37);stop-opacity:1"/><stop offset="0.19" style="stop-color:rgb(236,47,37);stop-opacity:1"/><stop offset="1" style="stop-color:rgb(241,92,37);stop-opacity:1"/></linearGradient>
    </defs>
</svg>
