<svg width="202" height="87" viewBox="0 0 202 87" fill="none" xmlns="http://www.w3.org/2000/svg">
<path d="M169.723 44.5504C168.462 43.7811 166.234 43.5464 164.8 42.9117C164.769 42.9117 160.607 41.2846 158.064 38.1766L157.68 37.7188C157.645 37.6765 157.599 37.6456 157.547 37.6305C157.494 37.6153 157.439 37.6166 157.387 37.6342C157.336 37.653 157.291 37.687 157.26 37.7316C157.228 37.7763 157.211 37.8295 157.21 37.8842V39.319C157.21 40.2961 157.245 42.6733 157.21 43.8657C157.176 45.0581 157.21 45.9929 157.137 47.0699C157.137 47.1302 157.156 47.1888 157.194 47.2363C157.231 47.2837 157.283 47.3171 157.342 47.331C157.4 47.3449 157.462 47.3384 157.516 47.3126C157.571 47.2868 157.615 47.2433 157.641 47.1892L158.153 46.0121C160.461 47.4546 163.726 49.2779 166.104 49.3663C167.504 49.4586 169.027 49.2048 169.846 48.647C171.258 47.6969 171.627 45.8736 169.723 44.5504ZM169.027 46.8583C168.804 47.2969 167.523 47.5623 166.396 47.5084C164.669 47.47 162.48 46.4737 159.068 44.3811C159.087 43.5657 159.099 42.9464 159.099 41.9001C163.199 44.9235 168.489 46.0006 168.715 46.1313C169.277 46.4045 169.031 46.8622 169.027 46.8622V46.8583Z" fill="#EE3135"/>
<path d="M11.2013 71.4035H14.194L17.5405 81.4046H17.5751L20.837 71.4035H23.7951V84.1741H21.7718V74.3192H21.7372L18.3752 84.1741H16.625L13.2592 74.3192H13.2246V84.1741H11.2013V71.4035Z" fill="#EE3135"/>
<path d="M26.3453 71.4035H35.077V73.3268H28.4647V76.6733H34.5808V78.4966H28.4647V82.2355H35.1962V84.1588H26.3491L26.3453 71.4035Z" fill="#EE3135"/>
<path d="M37.0504 71.4033C38.7198 71.5071 43.0511 71.0609 44.4936 71.9033C46.7015 72.9611 47.4324 75.4537 47.4324 77.7886C47.4324 80.1235 46.6977 82.6161 44.4936 83.6739C43.0703 84.5163 38.6967 84.0586 37.0504 84.174V71.4033ZM39.1737 82.3507C43.0203 82.4776 45.3283 82.2737 45.3283 77.7886C45.3283 73.3035 43.0203 73.0996 39.1737 73.2266V82.3507Z" fill="#EE3135"/>
<path d="M49.3172 71.4035H51.4405V84.1741H49.3172V71.4035Z" fill="#EE3135"/>
<path d="M62.234 75.4615C61.8686 73.2382 59.4106 72.2804 57.5335 73.3344C56.014 74.2152 55.5332 76.1193 55.5217 77.7887C55.5101 79.4582 56.014 81.3622 57.5335 82.2431C59.8683 83.4894 62.1801 81.8854 62.2994 79.3081H64.3727C64.2727 83.3124 60.3145 85.6204 56.768 83.951C52.2405 81.7276 52.2521 73.8691 56.768 71.6419C59.776 70.1456 64.165 71.788 64.3573 75.4885L62.234 75.4615Z" fill="#EE3135"/>
<path d="M66.3114 71.4035H68.4347V82.2432H74.5893V84.1665H66.3114V71.4035Z" fill="#EE3135"/>
<path d="M75.9277 71.4035H78.0549V78.8543C77.9549 80.8122 78.5319 82.6586 80.9091 82.5586C83.2824 82.6586 83.8633 80.8122 83.7633 78.8543V71.4035H85.8866V79.5775C86.0058 82.574 83.844 84.5781 80.9091 84.478C77.9703 84.5896 75.8085 82.5547 75.9085 79.5775L75.9277 71.4035Z" fill="#EE3135"/>
<path d="M89.7258 79.916C89.6258 81.6931 91.1605 82.7317 92.803 82.6547C93.8185 82.6547 94.8379 82.3547 95.2341 81.4277C95.6303 80.5006 95.2341 79.4351 94.3686 79.1466C92.9454 78.5427 90.9067 78.3773 89.4488 77.5272C87.991 76.6771 87.7178 74.5615 88.4449 73.1806C90.4182 69.6494 97.3228 70.7457 97.1535 75.177H95.0302C94.9712 74.3538 94.7045 73.773 94.2301 73.4345C93.1031 72.5921 90.2028 72.6652 90.1874 74.5884C90.1874 75.7809 91.1028 76.104 92.1645 76.3886C92.8223 76.5771 93.657 76.8079 94.3417 76.9964C98.6114 77.708 98.4498 83.351 94.434 84.2588C91.2567 85.1089 87.5101 83.6702 87.6025 79.9198L89.7258 79.916Z" fill="#EE3135"/>
<path d="M112.259 75.4615C111.893 73.2382 109.439 72.2804 107.562 73.3344C106.023 74.2152 105.562 76.1193 105.546 77.7887C105.531 79.4582 106.043 81.3622 107.562 82.2431C109.897 83.4894 112.209 81.8854 112.328 79.3081H114.401C114.297 83.3124 110.343 85.6204 106.797 83.951C102.269 81.7276 102.281 73.8691 106.797 71.6419C109.805 70.1456 114.19 71.788 114.382 75.4885L112.259 75.4615Z" fill="#EE3135"/>
<path d="M121.506 71.0996C126.21 70.9996 128.284 76.4849 126.914 80.3815C126.581 81.5605 125.873 82.5985 124.896 83.3378C123.919 84.0771 122.727 84.4772 121.502 84.4772C120.277 84.4772 119.085 84.0771 118.108 83.3378C117.132 82.5985 116.423 81.5605 116.09 80.3815C114.728 76.4733 116.798 70.9996 121.506 71.0996ZM121.506 72.9229C118.175 72.8883 117.359 76.9734 118.044 79.5775C118.879 83.6857 124.16 83.6857 124.995 79.5775C125.649 76.9734 124.833 72.8883 121.506 72.9229Z" fill="#EE3135"/>
<path d="M129.135 81.7585H131.496V84.1742H129.135V81.7585Z" fill="#EE3135"/>
<path d="M133.862 81.7585H136.223C136.2 83.9472 136.67 86.3475 133.915 87.0014V85.909C134.685 85.7359 135.042 84.8935 135.019 84.1742H133.862V81.7585Z" fill="#EE3135"/>
<path d="M143.424 71.4035H145.551V82.2432H151.706V84.1665H143.424V71.4035Z" fill="#EE3135"/>
<path d="M150.459 71.4035H160.284V73.3268H156.437V84.1665H154.314V73.3345H150.467L150.459 71.4035Z" fill="#EE3135"/>
<path d="M161.691 71.4033C163.364 71.5071 167.696 71.0609 169.134 71.9033C171.342 72.9611 172.073 75.4537 172.077 77.7886C172.081 80.1235 171.342 82.6161 169.134 83.6739C167.711 84.5163 163.338 84.0586 161.691 84.174V71.4033ZM163.815 82.3507C167.661 82.4776 169.969 82.2737 169.95 77.7886C169.931 73.3035 167.642 73.0996 163.815 73.2266V82.3507Z" fill="#EE3135"/>
<path d="M173.843 81.7585H176.204V84.1742H173.843V81.7585Z" fill="#EE3135"/>
<path d="M199.45 6.50355C188.937 -11.1024 149.144 12.2042 131.654 15.9585C127.988 15.9585 124.395 12.3119 120.922 8.78843C116.479 4.28405 111.89 -0.385725 106.635 2.09534C102.877 3.86862 101.862 10.1232 103.531 21.186C90.1758 16.6586 79.163 25.148 77.0127 33.2182C75.6213 29.7745 73.2327 26.825 70.1533 24.7483C67.0739 22.6716 63.4442 21.5624 59.73 21.563H44.6513V56.8825L38.7583 21.563H27.7532L22.4911 40.4614L17.2251 21.563H6.21995L0 58.852H11.0859L13.3939 38.9574L19.4599 58.852H25.5183L31.5806 38.9497L33.8885 58.8443C40.1777 58.8443 53.36 58.8443 59.7261 58.8443C63.4972 58.844 67.1796 57.7 70.2871 55.5636C73.3947 53.4271 75.7813 50.3985 77.132 46.8775C81.4594 58.5981 93.2377 61.9293 103.585 58.6674V59.0213H130.865V57.4326C138.058 62.187 148.944 60.2176 153.945 56.1363C155.626 57.1186 157.388 57.9563 159.211 58.6404C162.434 59.7944 167.339 60.0137 167.546 60.0214C172.658 60.156 177.074 58.375 179.425 55.667C177.151 60.2022 174.989 63.9411 173.124 66.4375L174.574 67.5915C185.537 54.6631 209.905 22.9555 199.45 6.50355ZM59.0683 49.3278H54.8832V30.8449H59.0683C71.3005 31.268 71.2967 48.9047 59.0683 49.3278ZM103.589 44.3695C97.1343 48.9047 90.8028 46.5006 90.5412 39.9036C90.5412 35.3377 94.0839 32.8759 97.4189 32.8759C100.046 32.9182 101.962 34.0991 103.573 35.2531L103.589 44.3695ZM103.589 32.999C101.75 31.7988 99.4653 30.9872 97.4343 31.0103C95.4764 30.8987 88.8487 32.5489 88.691 39.8575C88.7256 47.6738 96.5804 51.0126 103.604 46.5621C103.604 48.67 103.604 54.6938 103.604 56.7094C96.238 59.3136 86.9869 58.0635 81.7863 51.4511C78.8426 47.7105 77.4774 42.9674 77.9821 38.2342C78.3667 27.7714 89.3565 18.1665 103.62 23.144L103.589 32.999ZM179.886 51.7281C177.797 56.4056 172.054 58.8828 165.419 57.9827C160.649 57.3749 159.265 57.0403 154.506 54.2861L155.699 51.5935C154.245 53.386 153.079 55.1323 148.921 56.8749C144.305 58.8482 137.016 58.7982 133.027 56.5979C131.665 55.8355 130.461 54.8197 129.48 53.6052L129.007 52.9706V57.1595H105.52V23.0786H115.986V47.9046L126.303 47.9315C125.988 46.6079 125.85 45.2485 125.891 43.8887L125.853 23.0786H136.385V42.7309C136.423 45.6543 137.454 48.6085 141.655 48.6354C144.732 48.6354 146.355 46.4813 146.598 43.4656C146.621 43.2348 146.644 42.9925 146.659 42.7193V23.0786H157.195V29.0677C158.474 25.8421 161.696 23.5058 164.884 22.5093C170.227 21.213 176.305 22.0477 181.402 24.5749L178.574 32.7374C176.49 31.3218 173.878 30.2756 171.308 30.5333C170.391 30.5432 169.485 30.7409 168.646 31.1141C167.069 31.795 166.723 33.4221 167.812 34.6184C168.554 35.3877 169.423 35.6493 170.423 36.0147C172.82 36.9187 175.905 36.861 178.074 38.4188C180.667 40.3498 183.098 45.1696 179.886 51.7281ZM124.018 43.8964C124.005 44.6229 124.029 45.3496 124.091 46.0736H117.844V21.2745L106.935 21.213C106.431 15.7277 107.032 12.1965 108.597 11.508C111.578 10.1963 113.825 12.2004 116.929 14.9699C119.314 17.0933 122.083 19.5859 125.776 21.2284H123.98L124.018 43.8964ZM182.39 41.1345C179.528 34.2107 174.166 36.0224 169.35 33.4913C169.185 33.3567 169.035 33.149 169.062 33.0567C169.643 32.4489 171.474 32.322 172.22 32.3489C175.616 32.5335 177.22 34.1645 179.555 35.5685L183.717 23.644C178.59 20.686 172.293 19.932 170.585 20.0628C166.981 19.9397 162.076 20.6437 159.08 23.6286V21.2284H144.817V42.677C144.578 45.7851 143.724 46.0928 143.22 46.3928C142.332 47.066 140.262 46.6737 139.843 46.3928C138.477 45.8889 138.304 43.631 138.27 42.6963V22.3093C153.068 18.6857 179.013 9.41158 187.822 24.1402C190.826 29.487 187.314 38.1996 183.171 47.6045C183.469 45.4166 183.2 43.1889 182.39 41.1345ZM189.437 23.2594C179.436 6.79204 151.948 17.1663 137.408 20.6091C127.826 22.2939 122.572 17.4971 118.175 13.6005C114.694 10.4886 111.944 8.0345 107.878 9.78086C105.924 10.6233 104.939 12.9774 104.874 17.0894C102.97 0.360516 110.259 -0.220322 119.575 10.0924C123.26 13.8352 127.211 17.9434 131.646 17.8164C134.919 17.8741 142.109 14.7391 147.417 12.6312C164.796 5.7073 191.057 -4.70546 197.846 7.4652C205.789 19.8859 191.414 42.7732 180.902 56.7018C186.445 45.7274 193.842 30.8872 189.437 23.2594Z" fill="#EE3135"/>
</svg>
