<?xml version="1.0" encoding="utf-8"?>
<!-- Generator: Adobe Illustrator 27.8.0, SVG Export Plug-In . SVG Version: 6.00 Build 0)  -->
<svg version="1.1" xmlns="http://www.w3.org/2000/svg" xmlns:xlink="http://www.w3.org/1999/xlink" x="0px" y="0px"
	 viewBox="0 0 71.43 79.37" style="enable-background:new 0 0 71.43 79.37;" xml:space="preserve">
<style type="text/css">
	.st0{fill:#DD0064;}
	.st1{fill:#FFFFFF;}
</style>
<g id="Background">
	<rect class="st0" width="71.43" height="79.37"/>
</g>
<g id="VITA_-_Perfect_Match">
	<g>
		<path class="st1" d="M31.95,57.6l-0.01,0l-0.01,0h-0.01c-0.31,0-0.6-0.12-0.82-0.34c-0.22-0.22-0.34-0.51-0.34-0.83v-0.02V40.57
			c0,0.01,0-0.01,0-0.01c0-0.32,0.12-0.61,0.34-0.83c0.22-0.22,0.51-0.33,0.83-0.33h0.03h0.72h0.08v-0.09v-1.76v-0.07h-0.08h-7.67
			h-0.08v0.07v1.76v0.09h0.08h0.72h0.03c0.31,0,0.6,0.11,0.83,0.33c0.22,0.22,0.34,0.51,0.34,0.83c0,0.01,0,0.03,0,0.03v15.83v0.02
			c0,0.64-0.52,1.17-1.17,1.17h-0.01l0,0l-0.01,0l0.01,0h-1.16h-0.08v0.08v1.76v0.08h0.08h8.36h0.08v-0.08v-1.76V57.6h-0.08
			L31.95,57.6L31.95,57.6z"/>
		<path class="st1" d="M23.88,37.47v1.92H22.9c-0.49,0.02-0.92,0.35-1.06,0.82c-0.01,0.02-0.01,0.04-0.02,0.06
			c0,0.01-0.01,0.04-0.01,0.04l-4.95,19.16c0,0-0.02,0.06-0.02,0.06h-3.46l-0.02-0.06l-5.2-19.18l0,0l-0.01-0.03
			c-0.14-0.51-0.6-0.86-1.13-0.86l-0.01,0H5.95v-1.92h8.57v1.92l-0.87,0c-0.31,0-0.6,0.12-0.82,0.34c-0.22,0.22-0.34,0.51-0.34,0.83
			c0,0.1,0.01,0.2,0.04,0.3l0,0.01l0,0.01v0.01l3.53,13.01l3.48-13.44c0,0,0.01-0.05,0.02-0.08c0.01-0.04,0.01-0.09,0.01-0.14
			c0-0.22-0.09-0.43-0.24-0.59c-0.16-0.16-0.36-0.24-0.59-0.24h-1.15v-1.92H23.88z"/>
		<path class="st1" d="M48.16,37.47H33.84h-0.08v0.07v5.04v0.08h0.08h2.03h0.08v-0.08v-2.01l0-0.01c0-0.32,0.12-0.61,0.34-0.83
			c0.22-0.22,0.51-0.33,0.82-0.33h0.03h1.94v17.01v0.02c0,0.64-0.52,1.17-1.17,1.17h-0.01l-0.01,0h-0.01h-1.16h-0.08v0.08v1.76v0.08
			h0.08h8.34h0.08v-0.08v-1.76V57.6h-0.08h-1h-0.01l-0.01,0h-0.01c-0.31,0-0.6-0.12-0.82-0.34c-0.22-0.22-0.34-0.51-0.34-0.83v-0.02
			V39.4h1.94h0.03c0.31,0,0.6,0.11,0.82,0.33c0.22,0.22,0.34,0.51,0.34,0.83c0,0.01,0,0.03,0,0.03v2v0.08h0.08h2.03h0.08v-0.08
			v-5.04v-0.07H48.16z"/>
		<path class="st1" d="M52.03,49.83L52.03,49.83L52.03,49.83l2.68-10.37l0-0.01h0l0,0.01l2.8,10.36l0,0L52.03,49.83L52.03,49.83z
			 M63.58,56.65L58.4,37.52l-0.01-0.05l-5.4,0l-0.01,0.05l-4.95,19.14c-0.01,0.02-0.01,0.05-0.01,0.05
			c-0.14,0.52-0.61,0.89-1.14,0.89h-0.7h-0.08v0.08v1.76v0.08h0.08h6.33h0.08v-0.08v-1.76V57.6H52.5h-0.92h-0.05
			c-0.31,0-0.6-0.12-0.82-0.34c-0.22-0.22-0.34-0.51-0.34-0.83c0-0.1,0.01-0.2,0.04-0.3c0,0,0-0.01,0-0.01c0,0,0.99-3.84,1.13-4.36
			h6.51l0.22,0.84c0,0,0.91,3.52,0.91,3.52c0,0,0,0.01,0,0.01c0.02,0.09,0.04,0.19,0.04,0.3c0,0.64-0.52,1.17-1.17,1.17H58h-0.87
			h-0.05H57v0.08v1.76v0.08h0.08h0.05h8.27h0.08v-0.08v-1.76V57.6H65.4h-0.65c-0.53-0.01-1-0.38-1.14-0.89L63.58,56.65z"/>
	</g>
</g>
<g id="Ebene_3">
	<g>
		<path class="st1" d="M25.78,71.99v-6.07c-0.37,0.36-0.82,0.63-1.27,0.86v-1.42c0.6-0.35,1.05-0.7,1.47-1.16h1.39v7.8H25.78z"/>
		<path class="st1" d="M31.18,72.13c-2.18,0-2.26-1.44-2.26-3.35v-2.1c0-1.53,0.43-2.62,2.3-2.62c1.84,0,2.23,0.98,2.23,2.5v2.18
			C33.45,70.61,33.36,72.13,31.18,72.13z M31.93,67.45c0-1.55-0.02-2.4-0.73-2.4c-0.73,0-0.74,0.9-0.74,2.63v1.19
			c0,1.41,0.03,2.28,0.73,2.28c0.74,0,0.74-0.9,0.74-2.47V67.45z"/>
		<path class="st1" d="M36.71,72.13c-2.18,0-2.26-1.44-2.26-3.35v-2.1c0-1.53,0.43-2.62,2.3-2.62c1.84,0,2.23,0.98,2.23,2.5v2.18
			C38.98,70.61,38.89,72.13,36.71,72.13z M37.46,67.45c0-1.55-0.02-2.4-0.73-2.4c-0.73,0-0.74,0.9-0.74,2.63v1.19
			c0,1.41,0.03,2.28,0.73,2.28c0.74,0,0.74-0.9,0.74-2.47V67.45z"/>
		<path class="st1" d="M44.72,74.07h-1.48l0.61-1.99l-1.7-5.52h1.65l0.84,3.68l0.82-3.68h1.51L44.72,74.07z"/>
		<path class="st1" d="M48.86,69.44c0,0.04,0.01,0.44,0.01,0.47c0.03,0.88,0.15,1.3,0.68,1.3c0.57,0,0.66-0.54,0.66-1.03h1.47
			c-0.04,1.35-0.71,1.93-2.11,1.93c-1.93,0-2.21-1.15-2.21-2.8c0-1.64,0.4-2.89,2.26-2.89c1.92,0,2.09,1.25,2.09,2.88v0.14H48.86z
			 M50.15,67.92c-0.05-0.35-0.21-0.6-0.59-0.6c-0.41,0-0.58,0.28-0.65,0.68c-0.03,0.21-0.04,0.4-0.04,0.64h1.32
			C50.19,68.4,50.19,68.14,50.15,67.92z"/>
		<path class="st1" d="M55.34,71.99l-0.03-0.65c-0.32,0.54-0.79,0.76-1.42,0.76c-1.02,0-1.45-0.68-1.45-1.66
			c0-1.62,1.12-1.89,2.45-1.89h0.36v-0.29c0-0.46,0-0.98-0.56-0.98c-0.43,0-0.59,0.3-0.59,0.7v0.1h-1.5v-0.1
			c0-1.27,1.16-1.55,2.15-1.55c1.4,0,1.99,0.5,1.99,1.88v1.98c0,0.57,0.02,1.14,0.1,1.7H55.34z M55.23,69.35h-0.24
			c-0.72,0-1.05,0.28-1.05,1c0,0.41,0.11,0.82,0.57,0.82c0.58,0,0.71-0.68,0.71-1.21V69.35z"/>
		<path class="st1" d="M60.46,67.72c-0.88,0-1.11,0.53-1.11,1.31v2.95h-1.52v-4.41c0-0.05-0.03-0.97-0.03-1.02h1.46l0.02,0.7
			c0.29-0.63,0.79-0.81,1.34-0.81c0.02,0,0.05,0,0.11,0.01v1.28C60.66,67.73,60.54,67.72,60.46,67.72z"/>
		<path class="st1" d="M63.29,72.09c-1.07,0-2-0.39-2-1.59v-0.25h1.48v0.16c0,0.43,0.13,0.79,0.62,0.79c0.37,0,0.59-0.23,0.59-0.59
			c0-0.37-0.15-0.53-0.67-0.78l-0.81-0.39c-0.78-0.38-1.15-0.65-1.15-1.47c0-1.17,1.03-1.56,2.08-1.56c1.29,0,1.97,0.46,1.97,1.49
			v0.18h-1.47v-0.17c0-0.39-0.14-0.69-0.57-0.69c-0.32,0-0.54,0.22-0.54,0.54c0,0.35,0.25,0.52,0.68,0.72l0.74,0.36
			c0.88,0.42,1.23,0.74,1.23,1.57C65.47,71.67,64.44,72.09,63.29,72.09z"/>
	</g>
</g>
</svg>
